<svg xmlns="http://www.w3.org/2000/svg" version="1.1" xmlns:xlink="http://www.w3.org/1999/xlink" width="1000" height="1000"><g clip-path="url(#SvgjsClipPath1040)"><rect width="1000" height="1000" fill="#ffffff"></rect><g transform="matrix(0.5890052356020943,0,0,0.5890052356020943,49.99999999999994,49.99999999999994)"><svg xmlns="http://www.w3.org/2000/svg" width="1528" height="1528" viewBox="0 0 1528 1528"><g transform="translate(-0.3 -0.3)">
    <path fill-rule="evenodd" d="M1056.5 58.4c92.7 38.4 176.9 94.7 247.8 165.6s127.2 155.1 165.6 247.7c38.3 92.7 58.1 192 58.1 292.3 0 308.9-186.1 587.4-471.5 705.6-285.3 118.2-613.8 52.8-832.2-165.6C5.8 1085.6-59.5 757.1 58.7 471.7 176.9 186.4 455.4.3 764.3.3 864.6.3 963.9 20 1056.5 58.4m-77.9 1223c68-28.1 129.7-69.4 181.7-121.4s93.3-113.7 121.4-181.7c28.2-67.9 42.6-140.8 42.6-214.3 0-226.5-136.4-430.7-345.7-517.4S528.4 207.8 368.3 368C208.1 528.2 160.2 769 246.9 978.3c86.6 209.3 290.9 345.8 517.4 345.8 73.5 0 146.4-14.5 214.3-42.7m-396.9-190.8-144-144 509.2-509.2 144 144z"></path>
  </g></svg></g></g><defs><clipPath id="SvgjsClipPath1040"><rect width="1000" height="1000" x="0" y="0" rx="500" ry="500"></rect></clipPath></defs></svg>